<?xml version="1.0" encoding="utf-8"?>
<!-- Generator: Adobe Illustrator 19.1.0, SVG Export Plug-In . SVG Version: 6.00 Build 0)  -->
<svg version="1.1" id="Layer_1" xmlns="http://www.w3.org/2000/svg" xmlns:xlink="http://www.w3.org/1999/xlink" x="0px" y="0px"
	 viewBox="171 261 953 214.3" style="enable-background:new 171 261 953 214.3;" xml:space="preserve">
<style type="text/css">
	.st0{fill:#404040;}
	.st1{fill:#E0BB2D;}
</style>
<g>
	<g>
		<g>
			<polygon class="st0" points="1037.4,364.9 1103.6,300 1093.4,289.6 1022.4,359.1 1028.3,364.9 1022.4,370.8 1095.8,442.8 
				1106.1,432.4 			"/>
			<polygon class="st0" points="1007,387.2 1085,464 1095.2,453.7 1017.2,376.8 			"/>
			<polygon class="st0" points="1017.5,352.8 1095.2,276.2 1085,265.9 1007.3,342.6 			"/>
			<polygon class="st1" points="936.7,265.9 1037.2,364.9 936.7,464 926.6,453.7 1016.5,364.9 926.6,276.2 			"/>
			<polygon class="st1" points="929.6,289.4 1006.4,364.9 930.1,440 920,429.6 985.6,364.9 919.5,299.8 			"/>
		</g>
		<g>
			<rect x="695.6" y="274.7" class="st0" width="13.8" height="180.3"/>
			<rect x="717.3" y="274.7" class="st0" width="15.8" height="180.3"/>
		</g>
		<g>
			<polygon class="st0" points="576.1,435.3 665.1,435.3 665.1,422.5 589,422.5 			"/>
			<polygon class="st0" points="568.5,432 583.3,417.3 583.3,274.7 568.5,274.7 			"/>
			<polygon class="st0" points="568.6,442.2 556,455 665.1,455 665.1,442.2 			"/>
			<polygon class="st0" points="560.7,439.5 560.7,274.7 545.9,274.7 545.9,454.1 			"/>
		</g>
		<g>
			<path class="st0" d="M421.6,293.1c-39.5,0-71.6,32.1-71.6,71.6s32.1,71.6,71.6,71.6s71.6-32.1,71.6-71.6
				C493.2,325.2,461,293.1,421.6,293.1z M421.1,424c-32.8,0-55.1-25.7-55.1-59.3s22.3-59.3,55.1-59.3s55.1,25.7,55.1,59.3
				C476.2,398.4,454,424,421.1,424z"/>
			<path class="st0" d="M421.1,272.3c-51.9,0-93.2,39.2-93.2,92.4s41.3,92.4,93.2,92.4s93.2-39.2,93.2-92.4S473,272.3,421.1,272.3z
				 M421.6,443.8c-43.6,0-79.1-35.5-79.1-79.1s35.5-79.1,79.1-79.1s79.1,35.5,79.1,79.1S465.2,443.8,421.6,443.8z"/>
		</g>
		<g>
			<path class="st0" d="M826.6,274.7h-55.1v179.9l13.8-14.1V285.6l41.4,0.1c43.4,0,78.5,35.3,78.5,78.5c0,43.4-35.3,78.5-78.5,78.5
				l-33.2,0.1l-12,12.1h45.1c55.6,0,94.8-36.9,94.8-90.1S881.8,274.7,826.6,274.7z"/>
			<path class="st0" d="M826.7,435.3c39.2,0,70.9-31.8,70.9-71s-32-71-71.1-71l-34.2-0.1v139.8l15.8-16V307.2h16.7
				c40,0,58.2,24,58.2,57.6s-18.2,57.6-58.2,57.6h-10.6l-13,12.9L826.7,435.3z"/>
		</g>
		<g>
			<path class="st0" d="M255.6,347.3l-9.3-3.9c-15.9-6.9-22.8-11.4-22.8-22.5c0-9,6.9-15.9,17.7-15.9c10.6,0,17.4,4.5,23.8,15.9
				l12-7.7c-12.3-17.5-30.2-22.3-44.3-18.6c-14.7,3.8-23.4,16.1-22.2,31.1c1.6,18.8,18.4,26.7,36.3,35.1c18,8.5,36.7,17.1,41.9,37.8
				c4.7,19.1-6.3,37.5-26.8,44.9c-5.8,2.1-12,3.3-18.5,3.3c-19.2,0-40.2-10-55.6-34.2l-12,6.9c10.8,21.5,33.1,37.8,67.5,37.8
				c35.2,0,61.5-18.2,61.5-51.6C304.9,374.6,287.2,360.8,255.6,347.3z"/>
			<path class="st0" d="M231.5,377.4l9.3,3.9c16.9,7.4,27,11.9,27,24.6c0,10.6-9.8,18.2-25.1,18.2c-18.2,0-28.6-9.6-36.6-22.5
				l-11.6,6.8c18.3,28.6,45,34.9,65,27.7c14.2-5.1,26.5-18.2,22.1-36.1c-4.2-17.1-20.5-24.7-37.7-32.8c-19-8.9-38.7-18-40.6-41.2
				c-1.6-18.9,9.4-34.3,27.8-39c16.8-4.3,38.2,1.2,52.5,21.9l10.5-6.7c-12.2-21.5-29.2-29.7-52.7-29.7c-33.1,0-54.3,21.2-54.3,49
				C187.1,351.8,204.8,366.1,231.5,377.4z"/>
		</g>
	</g>
</g>
</svg>
